<svg xmlns="http://www.w3.org/2000/svg" viewBox="0 0 53.45 51.96"><defs><style>.cls-1{fill:#955bed;}.cls-1,.cls-2,.cls-3,.cls-4{fill-rule:evenodd;}.cls-2{fill:#00d49a;}.cls-3{fill:#ffc333;}.cls-4{fill:#ff553b;}</style></defs><g id="Layer_2" data-name="Layer 2"><g id="Layer_1-2" data-name="Layer 1"><path class="cls-1" d="M36.33,23.9l-8,8,20,20H8.26V24.19c1.86-.25,4.89,3.14,6.36,2,1.87,1.41,3,1.14,5.36,1.14s4-.07,5.9-1.48c1.87,1.41,5.1-1.59,7.47-1.59a11.55,11.55,0,0,0,3-.39"/><path class="cls-2" d="M36.33,23.9l-8,8-20,20V24.19a11,11,0,0,0,5.14-2.06,11.32,11.32,0,0,0,13.3,0,11.18,11.18,0,0,0,6.65,2.16,11.55,11.55,0,0,0,3-.39"/><path class="cls-3" d="M26.7,0H36.88L40,16.49c-.54,2.56-3.31,4.5-6.65,4.5s-6.11-1.94-6.65-4.5Z"/><path class="cls-3" d="M9.12,0h6.16L13.4,16.49c-.54,2.56-3.32,4.5-6.65,4.5C3,21,0,18.57,0,15.58A4.08,4.08,0,0,1,0,15s0-.05,0-.23h0a4.88,4.88,0,0,1,.53-1.42l4-10.63A4.65,4.65,0,0,1,9.12,0"/><path class="cls-4" d="M15.28,0,13.75,13.36l-.35,3.13c.54,2.56,3.31,4.5,6.65,4.5s6.11-1.94,6.65-4.5V0Z"/><path class="cls-4" d="M36.88,0l2.53,13.36L40,16.49a4.88,4.88,0,0,0,1.27,2.36A7.41,7.41,0,0,0,46.65,21c3.67,0,6.66-2.36,6.74-5.29.08.12.09.1,0-.12,0-1.32-3.92-10.94-4.61-12.89A4.6,4.6,0,0,0,44.28,0Z"/></g></g></svg>